<?xml version="1.0" encoding="UTF-8" standalone="no"?>
<!-- Created with Inkscape (http://www.inkscape.org/) -->

<svg
   xmlns:dc="http://purl.org/dc/elements/1.1/"
   xmlns:cc="http://creativecommons.org/ns#"
   xmlns:rdf="http://www.w3.org/1999/02/22-rdf-syntax-ns#"
   xmlns:svg="http://www.w3.org/2000/svg"
   xmlns="http://www.w3.org/2000/svg"
   xmlns:sodipodi="http://sodipodi.sourceforge.net/DTD/sodipodi-0.dtd"
   xmlns:inkscape="http://www.inkscape.org/namespaces/inkscape"
   width="512"
   height="512"
   viewBox="0 0 135.46666 135.46668"
   version="1.1"
   id="svg8"
   sodipodi:docname="simple-pwgen_new.svg"
   inkscape:version="0.92.5 (2060ec1f9f, 2020-04-08)">
  <defs
     id="defs2">
    <inkscape:path-effect
       effect="fillet_chamfer"
       id="path-effect1124"
       is_visible="true"
       lpeversion="1"
       satellites_param="F,0,0,1,0,0,0,1 @ F,0,0,1,0,42.40476,0,1 @ F,0,0,1,0,0,0,1 @ F,0,0,1,0,0,0,1 @ F,0,0,1,0,0,0,1 @ F,0,0,1,0,42.40476,0,1"
       unit="px"
       method="auto"
       mode="F"
       radius="0"
       chamfer_steps="1"
       flexible="false"
       use_knot_distance="true"
       apply_no_radius="true"
       apply_with_radius="true"
       only_selected="false"
       hide_knots="false" />
    <inkscape:path-effect
       effect="fillet_chamfer"
       id="path-effect823"
       is_visible="true"
       lpeversion="1"
       satellites_param="F,0,0,1,0,208.23219,0,1 @ F,0,0,1,0,0,0,1 @ F,0,0,1,0,208.23219,0,1 @ F,0,0,1,0,0,0,1 @ F,0,0,1,0,0,0,1 @ F,0,0,1,0,0,0,1"
       unit="px"
       method="auto"
       mode="F"
       radius="0"
       chamfer_steps="1"
       flexible="false"
       use_knot_distance="true"
       apply_no_radius="true"
       apply_with_radius="true"
       only_selected="false"
       hide_knots="false" />
  </defs>
  <sodipodi:namedview
     id="base"
     pagecolor="#ffffff"
     bordercolor="#666666"
     borderopacity="1.0"
     inkscape:pageopacity="0.0"
     inkscape:pageshadow="2"
     inkscape:zoom="4.0824368"
     inkscape:cx="336.7066"
     inkscape:cy="276.44555"
     inkscape:document-units="px"
     inkscape:current-layer="g6200"
     showgrid="false"
     units="px"
     inkscape:snap-tangential="false"
     inkscape:window-width="1904"
     inkscape:window-height="1006"
     inkscape:window-x="0"
     inkscape:window-y="32"
     inkscape:window-maximized="1"
     inkscape:pagecheckerboard="0"
     inkscape:snap-bbox="false" />
  <metadata
     id="metadata5">
    <rdf:RDF>
      <cc:Work
         rdf:about="">
        <dc:format>image/svg+xml</dc:format>
        <dc:type
           rdf:resource="http://purl.org/dc/dcmitype/StillImage" />
        <dc:title />
      </cc:Work>
    </rdf:RDF>
  </metadata>
  <g
     inkscape:label="Layer 1"
     inkscape:groupmode="layer"
     id="layer1"
     transform="translate(-89.986288,-111.17005)">
    <g
       id="g5997"
       inkscape:transform-center-x="-2.3596689e-06"
       style="opacity:0.75;fill:#ff0000;stroke:#ff0000;stroke-width:13.22920036"
       transform="matrix(0.80854881,0,0,0.74639694,17.227982,27.798098)"
       inkscape:transform-center-y="1.0014997e-06">
      <g
         id="g5989">
        <g
           id="path5985">
          <path
             style="color:#000000;stroke:none;stroke-width:13.22920036"
             d="m 173.75775,138.03215 a 88.13029,88.13029 161.39353 0 1 -63.92643,21.52166 c 0,45.67764 24.36843,87.88565 63.92643,110.72447 39.55799,-22.83882 63.927,-65.04683 63.927,-110.72447 v 0 a 88.132405,88.132405 18.606318 0 1 -63.927,-21.52166 z"
             id="path6037"
             inkscape:connector-curvature="0" />
          <path
             style="color:#000000;stroke:none"
             d="m 173.75781,129.25391 -4.34961,3.79492 c -16.2918,14.21548 -37.55504,21.37442 -59.12695,19.90625 l -7.06445,-0.48047 v 7.08008 c 0,48.03013 25.63901,92.43608 67.23437,116.45117 l 3.30664,1.91016 3.30664,-1.91016 c 41.59533,-24.01508 67.23438,-68.42099 67.23438,-116.45117 v -7.08008 l -7.0625,0.48047 c -21.57211,1.4681 -42.83683,-5.69079 -59.12891,-19.90625 z m 0,17.19336 c 16.3784,12.68141 36.40605,19.65227 57.08789,19.83984 -2.18648,39.40984 -23.45531,75.32142 -57.08789,96.20508 -33.63253,-20.88365 -54.90146,-56.7952 -57.08789,-96.20508 20.68189,-0.18742 40.70957,-7.15827 57.08789,-19.83984 z"
             id="path6039"
             inkscape:connector-curvature="0" />
        </g>
        <g
           id="path5987">
          <path
             style="color:#000000;stroke:none;stroke-width:13.22920036"
             d="m 173.75781,129.25391 -4.34961,3.79492 c -16.29181,14.21549 -37.55503,21.37442 -59.12695,19.90625 l -7.06445,-0.48047 v 7.08008 c 0,48.03012 25.63902,92.43608 67.23437,116.45117 l 3.30664,1.91016 3.30664,-1.91016 c 41.59532,-24.01507 67.23438,-68.42099 67.23438,-116.45117 v -7.08008 l -7.0625,0.48047 c -21.57211,1.4681 -42.83683,-5.69079 -59.12891,-19.90625 z m 0,17.19336 c 16.37839,12.68141 36.40605,19.65227 57.08789,19.83984 -2.18648,39.40984 -23.45531,75.32142 -57.08789,96.20508 -33.63254,-20.88365 -54.90146,-56.79519 -57.08789,-96.20508 20.68189,-0.18742 40.70958,-7.15827 57.08789,-19.83984 z"
             id="path6043"
             inkscape:connector-curvature="0" />
          <path
             style="color:#000000;stroke:none"
             d="m 173.75781,120.47656 -4.34765,3.79297 -4.35157,3.79492 c -14.97243,13.06427 -34.50332,19.64028 -54.32812,18.29102 l -14.128908,-0.96094 v 14.16016 c 0,50.38347 26.908118,96.98753 70.541018,122.17968 l 6.61523,3.82032 6.61328,-3.82032 c 43.63372,-25.19193 70.54297,-71.79559 70.54297,-122.17968 v -14.16016 l -14.12695,0.96094 c -19.82501,1.3492 -39.3575,-5.22687 -54.33008,-18.29102 z m -0.002,17.55664 h 0.002 0.002 c 1.0677,0.93158 2.21415,1.74594 3.32031,2.6211 l -3.32227,-2.57227 -3.32226,2.57227 c 1.10612,-0.87515 2.25263,-1.68952 3.32031,-2.6211 z m 0.002,16.52344 c 14.72566,10.29177 31.85129,16.51765 49.71289,17.97852 -3.79243,33.20475 -21.85179,63.08907 -49.71289,81.86523 -27.86108,-18.77615 -45.92048,-48.66046 -49.71289,-81.86523 17.86167,-1.46077 34.98726,-7.68661 49.71289,-17.97852 z m 42.3418,3.70117 c 0.31595,0.0569 0.63059,0.11839 0.94726,0.17188 -0.3168,-0.0536 -0.6312,-0.1148 -0.94726,-0.17188 z m -84.69336,0.004 c -0.31004,0.0559 -0.61893,0.11338 -0.92969,0.16601 0.31063,-0.0525 0.61976,-0.11021 0.92969,-0.16601 z m -7.22656,1 c -0.35235,0.0337 -0.70559,0.0565 -1.0586,0.0859 0.35281,-0.0294 0.70642,-0.0523 1.0586,-0.0859 z m 99.15429,0 c 0.3542,0.0338 0.70962,0.0564 1.06446,0.0859 -0.35494,-0.0296 -0.71017,-0.052 -1.06446,-0.0859 z m -113.50195,0.29297 c 2.17767,0.14821 4.34579,0.13225 6.51367,0.11914 l -6.50781,0.0605 c -8e-5,-0.0602 -0.006,-0.11947 -0.006,-0.17968 z m 127.85156,0 c 0,0.0602 -0.006,0.11949 -0.006,0.17968 l -6.50781,-0.0605 c 2.16744,0.0131 4.33648,0.029 6.51367,-0.11914 z m -127.61523,7.11914 c 0.27956,5.025 0.87862,9.98879 1.73437,14.88476 -0.85589,-4.89726 -1.4546,-9.85984 -1.73437,-14.88476 z m 127.37891,0 c -0.27977,5.02492 -0.87848,9.9875 -1.73438,14.88476 0.85576,-4.89597 1.45481,-9.85977 1.73438,-14.88476 z m -125.50782,15.69726 c 0.86776,4.78214 2.01206,9.48802 3.40625,14.10352 -1.39419,-4.61762 -2.53844,-9.32021 -3.40625,-14.10352 z m 123.63672,0 c -0.86781,4.78331 -2.01205,9.4859 -3.40625,14.10352 1.3942,-4.6155 2.53849,-9.32138 3.40625,-14.10352 z M 115.625,197.38867 c 1.43399,4.62165 3.11538,9.15233 5.05469,13.5625 -1.93912,-4.41275 -3.62084,-8.93888 -5.05469,-13.5625 z m 116.26562,0 c -1.43385,4.62363 -3.11556,9.14975 -5.05468,13.5625 1.93931,-4.41017 3.62069,-8.94085 5.05468,-13.5625 z M 120.95703,211.5625 c 10.25678,22.99554 27.2232,42.80082 49.22656,56.48828 -22.00408,-13.68851 -38.97138,-33.47981 -49.22656,-56.48828 z m 105.60156,0 c -10.25518,23.00847 -27.22249,42.79979 -49.22656,56.48828 22.0034,-13.68747 38.9698,-33.49274 49.22656,-56.48828 z"
             id="path6045"
             inkscape:connector-curvature="0" />
        </g>
      </g>
      <g
         id="g5995">
        <g
           id="path5991">
          <path
             style="color:#000000;stroke:none;stroke-width:13.22920036"
             d="m 173.75781,129.25391 -4.34961,3.79492 c -16.29181,14.21549 -37.55503,21.37442 -59.12695,19.90625 l -7.06445,-0.48047 v 7.08008 c 0,48.03012 25.63902,92.43608 67.23437,116.45117 l 3.30664,1.91016 3.30664,-1.91016 c 41.59532,-24.01507 67.23438,-68.42099 67.23438,-116.45117 v -7.08008 l -7.0625,0.48047 c -21.57211,1.4681 -42.83683,-5.69079 -59.12891,-19.90625 z m 0,17.19336 c 16.37839,12.68141 36.40605,19.65227 57.08789,19.83984 -2.18648,39.40984 -23.45531,75.32142 -57.08789,96.20508 -33.63254,-20.88365 -54.90146,-56.79519 -57.08789,-96.20508 20.68189,-0.18742 40.70958,-7.15827 57.08789,-19.83984 z"
             id="path6049"
             inkscape:connector-curvature="0" />
          <path
             style="color:#000000;stroke:none"
             d="m 173.75781,120.47656 -4.34765,3.79297 -4.35157,3.79492 c -14.97243,13.06426 -34.50333,19.64028 -54.32812,18.29102 l -14.128908,-0.96094 v 14.16016 c 0,50.38348 26.908118,96.98753 70.541018,122.17968 l 6.61523,3.82032 6.61328,-3.82032 c 43.63372,-25.19194 70.54297,-71.79559 70.54297,-122.17968 v -14.16016 l -14.12695,0.96094 c -19.825,1.3492 -39.3575,-5.22688 -54.33008,-18.29102 z m -0.002,17.55664 h 0.002 0.002 c 1.0677,0.93158 2.21415,1.74594 3.32031,2.6211 l -3.32227,-2.57227 -3.32226,2.57227 c 1.10612,-0.87515 2.25263,-1.68952 3.32031,-2.6211 z m 0.002,16.52344 c 14.72566,10.29177 31.85128,16.51765 49.71289,17.97852 -3.79243,33.20474 -21.85179,63.08908 -49.71289,81.86523 -27.86107,-18.77615 -45.92048,-48.66046 -49.71289,-81.86523 17.86167,-1.46077 34.98726,-7.68661 49.71289,-17.97852 z m 42.3418,3.70117 c 0.31595,0.0569 0.63059,0.11839 0.94726,0.17188 -0.3168,-0.0536 -0.6312,-0.1148 -0.94726,-0.17188 z m -84.69336,0.004 c -0.31004,0.0559 -0.61893,0.11338 -0.92969,0.16601 0.31063,-0.0525 0.61976,-0.11021 0.92969,-0.16601 z m -7.22656,1 c -0.35235,0.0337 -0.7056,0.0565 -1.0586,0.0859 0.35281,-0.0294 0.70642,-0.0523 1.0586,-0.0859 z m 99.15429,0 c 0.3542,0.0338 0.70962,0.0564 1.06446,0.0859 -0.35494,-0.0296 -0.71017,-0.052 -1.06446,-0.0859 z m -113.50195,0.29297 c 2.17767,0.14821 4.34579,0.13225 6.51367,0.11914 l -6.50781,0.0605 c -8e-5,-0.0602 -0.006,-0.11947 -0.006,-0.17968 z m 127.85156,0 c 0,0.0602 -0.006,0.11949 -0.006,0.17968 l -6.50781,-0.0605 c 2.16744,0.0131 4.33648,0.029 6.51367,-0.11914 z m -127.61523,7.11914 c 0.27956,5.025 0.87862,9.98879 1.73437,14.88476 -0.85589,-4.89726 -1.4546,-9.85984 -1.73437,-14.88476 z m 127.37891,0 c -0.27977,5.02492 -0.87848,9.9875 -1.73438,14.88476 0.85576,-4.89597 1.45481,-9.85977 1.73438,-14.88476 z m -125.50782,15.69726 c 0.86776,4.78214 2.01206,9.48802 3.40625,14.10352 -1.39419,-4.61762 -2.53844,-9.32021 -3.40625,-14.10352 z m 123.63672,0 c -0.86781,4.78331 -2.01205,9.4859 -3.40625,14.10352 1.3942,-4.6155 2.53849,-9.32138 3.40625,-14.10352 z M 115.625,197.38867 c 1.43399,4.62166 3.11538,9.15233 5.05469,13.5625 -1.93912,-4.41275 -3.62084,-8.93888 -5.05469,-13.5625 z m 116.26562,0 c -1.43385,4.62362 -3.11556,9.14975 -5.05468,13.5625 1.93931,-4.41017 3.62069,-8.94085 5.05468,-13.5625 z M 120.95703,211.5625 c 10.25678,22.99554 27.22319,42.80082 49.22656,56.48828 -22.00407,-13.6885 -38.97138,-33.47981 -49.22656,-56.48828 z m 105.60156,0 c -10.25518,23.00847 -27.2225,42.79979 -49.22656,56.48828 22.0034,-13.68747 38.9698,-33.49274 49.22656,-56.48828 z"
             id="path6051"
             inkscape:connector-curvature="0" />
        </g>
        <g
           id="path5993">
          <path
             style="color:#000000;stroke:none;stroke-width:13.22920036"
             d="m 173.75781,120.47656 -4.34765,3.79297 -4.35157,3.79492 c -14.97243,13.06427 -34.50332,19.64028 -54.32812,18.29102 l -14.128908,-0.96094 v 14.16016 c 0,50.38347 26.908118,96.98753 70.541018,122.17968 l 6.61523,3.82032 6.61328,-3.82032 c 43.63372,-25.19193 70.54297,-71.79559 70.54297,-122.17968 v -14.16016 l -14.12695,0.96094 c -19.82501,1.3492 -39.3575,-5.22687 -54.33008,-18.29102 z m -0.002,17.55664 h 0.002 0.002 c 1.0677,0.93158 2.21415,1.74594 3.32031,2.6211 l -3.32227,-2.57227 -3.32226,2.57227 c 1.10612,-0.87515 2.25263,-1.68952 3.32031,-2.6211 z m 0.002,16.52344 c 14.72566,10.29177 31.85129,16.51765 49.71289,17.97852 -3.79243,33.20475 -21.85179,63.08907 -49.71289,81.86523 -27.86108,-18.77615 -45.92048,-48.66046 -49.71289,-81.86523 17.86167,-1.46077 34.98726,-7.68661 49.71289,-17.97852 z m 42.3418,3.70117 c 0.31595,0.0569 0.63059,0.11839 0.94726,0.17188 -0.3168,-0.0536 -0.6312,-0.1148 -0.94726,-0.17188 z m -84.69336,0.004 c -0.31004,0.0559 -0.61893,0.11338 -0.92969,0.16601 0.31063,-0.0525 0.61976,-0.11021 0.92969,-0.16601 z m -7.22656,1 c -0.35235,0.0337 -0.70559,0.0565 -1.0586,0.0859 0.35281,-0.0294 0.70642,-0.0523 1.0586,-0.0859 z m 99.15429,0 c 0.3542,0.0338 0.70962,0.0564 1.06446,0.0859 -0.35494,-0.0296 -0.71017,-0.052 -1.06446,-0.0859 z m -113.50195,0.29297 c 2.17767,0.14821 4.34579,0.13225 6.51367,0.11914 l -6.50781,0.0605 c -8e-5,-0.0602 -0.006,-0.11947 -0.006,-0.17968 z m 127.85156,0 c 0,0.0602 -0.006,0.11949 -0.006,0.17968 l -6.50781,-0.0605 c 2.16744,0.0131 4.33648,0.029 6.51367,-0.11914 z m -127.61523,7.11914 c 0.27956,5.025 0.87862,9.98879 1.73437,14.88476 -0.85589,-4.89726 -1.4546,-9.85984 -1.73437,-14.88476 z m 127.37891,0 c -0.27977,5.02492 -0.87848,9.9875 -1.73438,14.88476 0.85576,-4.89597 1.45481,-9.85977 1.73438,-14.88476 z m -125.50782,15.69726 c 0.86776,4.78214 2.01206,9.48802 3.40625,14.10352 -1.39419,-4.61762 -2.53844,-9.32021 -3.40625,-14.10352 z m 123.63672,0 c -0.86781,4.78331 -2.01205,9.4859 -3.40625,14.10352 1.3942,-4.6155 2.53849,-9.32138 3.40625,-14.10352 z M 115.625,197.38867 c 1.43399,4.62165 3.11538,9.15233 5.05469,13.5625 -1.93912,-4.41275 -3.62084,-8.93888 -5.05469,-13.5625 z m 116.26562,0 c -1.43385,4.62363 -3.11556,9.14975 -5.05468,13.5625 1.93931,-4.41017 3.62069,-8.94085 5.05468,-13.5625 z M 120.95703,211.5625 c 10.25678,22.99554 27.2232,42.80082 49.22656,56.48828 -22.00408,-13.68851 -38.97138,-33.47981 -49.22656,-56.48828 z m 105.60156,0 c -10.25518,23.00847 -27.22249,42.79979 -49.22656,56.48828 22.0034,-13.68747 38.9698,-33.49274 49.22656,-56.48828 z"
             id="path6055"
             inkscape:connector-curvature="0" />
          <path
             style="color:#000000;stroke:none"
             d="m 173.75781,111.69922 -4.34765,3.79297 -4.34766,3.79297 -4.35156,3.79492 h -0.002 c -13.65379,11.91368 -31.45077,17.90619 -49.52929,16.67578 l -21.193362,-1.44141 v 21.24024 c 0,52.73794 28.176282,101.53842 73.847652,127.9082 l 9.92383,5.73047 9.91992,-5.73047 c 45.67301,-26.36931 73.85157,-75.16901 73.85157,-127.9082 v -21.24024 l -21.19141,1.44141 c -18.07873,1.23036 -35.87745,-4.76232 -49.53125,-16.67578 h -0.002 z m 0,17.55469 2.48242,2.16406 h -0.28515 l -2.19727,-1.70117 -4.33984,3.36132 -0.0117,-0.0273 v -0.002 z m -7.42187,6.21875 7.08008,9.04687 -4.00586,-1.50195 c 1.39622,1.21822 2.63844,2.09004 3.5664,2.82422 l 0.73633,-0.94141 0.0449,0.0566 0.0449,-0.0566 0.73633,0.94141 c 0.92781,-0.73407 2.1701,-1.6059 3.56641,-2.82422 l 6.00195,-5.23633 c 9.90544,7.12693 21.25291,11.8291 33.16211,13.97461 l -2.31445,12.83398 c -13.38099,-2.42838 -26.15324,-7.58897 -37.40821,-15.45507 l -3.78906,-2.64844 -3.78906,2.64844 c -11.25873,7.86885 -24.03592,13.02984 -37.42188,15.45703 l -2.31054,-12.83203 c 13.12201,-2.36206 25.51579,-7.91294 36.09961,-16.28711 z m -36.96289,16.4414 2.16992,12.82813 c -2.23999,0.38116 -4.47341,0.79001 -6.74414,1.00781 l -1.24805,-13.06445 c 1.95491,-0.18659 3.89251,-0.44553 5.82227,-0.77149 z m 88.77539,0.002 c 1.92719,0.32541 3.86219,0.58311 5.81445,0.76953 l -1.25,13.06445 c -2.26685,-0.21754 -4.4962,-0.62747 -6.73242,-1.00781 z m -95.57617,0.84765 1.0957,13.15625 c -0.0546,0.005 -0.10745,0.019 -0.16211,0.0234 l -6.80859,0.55664 0.13671,1.1875 c -0.0316,-0.46338 -0.13626,-0.91673 -0.1621,-1.38086 l -13.20704,0.73438 c 0.29387,5.27807 0.92385,10.47035 1.8125,15.57226 -0.89273,-5.12448 -1.51967,-10.31555 -1.8125,-15.57226 -0.0117,-0.21017 -0.0108,-0.42248 -0.0215,-0.63282 l 12.94141,-0.11914 h 0.0215 l -0.0508,-6.6582 0.0977,0.0957 c -6.5e-4,-0.48807 -0.006,-0.54524 -0.006,-0.17187 l -0.0918,0.0684 -0.0488,-6.55664 c 2.09972,-0.0126 4.18447,-0.12938 6.26563,-0.30274 z m 102.375,0 c 2.07992,0.17321 4.16326,0.29004 6.26171,0.30274 l -0.0508,6.55664 -0.0898,-0.0684 c 0,-0.37931 -0.006,-0.32008 -0.006,0.17968 l 0.0957,-0.0957 -0.0508,6.65039 h 0.0215 l 12.94336,0.11914 c -0.0107,0.21034 -0.01,0.42265 -0.0215,0.63282 -0.29283,5.25676 -0.91973,10.44775 -1.8125,15.57226 0.88867,-5.10192 1.51864,-10.29419 1.8125,-15.57226 l -13.20703,-0.73438 c -0.0258,0.46413 -0.13053,0.91748 -0.16211,1.38086 l 0.13672,-1.1875 -6.80859,-0.55664 c -0.0534,-0.004 -0.10485,-0.019 -0.15821,-0.0234 z m -108.61329,6.8457 0.0176,0.0176 -0.0176,0.0117 z m 114.84571,0.008 v 0.0215 l -0.0117,-0.01 z m -57.42188,2.65625 c 12.79507,8.18876 27.08903,13.54367 42.07617,15.79297 -4.748,27.22767 -19.69857,51.53424 -42.07617,68.05273 -22.37758,-16.51849 -37.32818,-40.82505 -42.07617,-68.05273 14.9872,-2.24924 29.28111,-7.6041 42.07617,-15.79297 z m -56.24218,11.26367 c 0.50053,4.30182 1.21476,8.55493 2.16015,12.73633 6.74864,29.84888 24.60738,56.23942 50.38477,73.61133 l 3.69726,2.49218 3.69727,-2.49218 c 25.77741,-17.37192 43.63612,-43.76246 50.38476,-73.61133 0.94539,-4.1814 1.65962,-8.43452 2.16016,-12.73633 -0.27301,2.29383 -0.40503,4.60726 -0.80273,6.88281 l 13.02734,2.27735 c -0.0498,0.28463 -0.091,0.57131 -0.14258,0.85546 l -13.01367,-2.36328 c -0.31229,1.72131 -0.8415,3.38291 -1.22852,5.08399 -0.63098,2.77339 -1.181,5.57007 -2.00195,8.28906 l 12.6582,3.82227 c -0.0968,0.32063 -0.19376,0.64116 -0.29297,0.96093 l -12.63085,-3.91797 c -1.9e-4,5.9e-4 1.8e-4,10e-4 0,0.002 -1.36279,4.39192 -2.95682,8.68824 -4.79102,12.85937 -3.4e-4,7.7e-4 -0.002,0.001 -0.002,0.002 l 12.10547,5.32031 c -0.0947,0.21536 -0.19525,0.42774 -0.29102,0.64258 l -12.07617,-5.38672 c -2.4e-4,5.3e-4 2.4e-4,0.001 0,0.002 -8.51086,19.0805 -21.88941,35.84337 -39.08008,48.43164 -2.45635,1.79872 -4.99063,3.50987 -7.59961,5.13281 l 6.98633,11.23047 c -1.25386,0.78006 -2.47519,1.60015 -3.75977,2.3418 h -0.002 l -3.30469,1.91016 -3.30664,-1.91016 h -0.002 c -1.28377,-0.7412 -2.50473,-1.56028 -3.75781,-2.33984 l 6.98632,-11.23243 c -2.6084,-1.62266 -5.14188,-3.33494 -7.59765,-5.13281 -4.2e-4,-3e-4 -0.002,3e-4 -0.002,0 -17.19065,-12.58827 -30.5692,-29.35114 -39.08007,-48.43164 -2.4e-4,-5.3e-4 2.4e-4,-0.001 0,-0.002 l -12.07617,5.38672 c -0.0959,-0.21506 -0.19822,-0.427 -0.29297,-0.64258 l 12.10742,-5.32031 c -3.4e-4,-7.7e-4 -0.002,-0.001 -0.002,-0.002 -1.15083,-2.61708 -2.04173,-5.36035 -3.00586,-8.06836 -0.57241,-1.60742 -1.27774,-3.15478 -1.78516,-4.79101 -1.8e-4,-5.9e-4 1.8e-4,-0.001 0,-0.002 l -12.63086,3.91797 c -0.0992,-0.31977 -0.19613,-0.6403 -0.29297,-0.96093 l 12.6582,-3.82227 c -0.82094,-2.719 -1.37096,-5.51567 -2.00195,-8.28906 -0.38702,-1.70108 -0.91623,-3.36268 -1.22851,-5.08399 l -13.01368,2.36328 c -0.0516,-0.28414 -0.0928,-0.57083 -0.14257,-0.85546 l 13.02734,-2.27735 c -0.39763,-2.27492 -0.52969,-4.58887 -0.80273,-6.88281 z m -12.07422,10.05664 c 0.90768,4.99294 2.1022,9.8982 3.55078,14.70508 -1.45096,-4.81567 -2.64401,-9.71859 -3.55078,-14.70508 z m 136.63281,0 c -0.90681,4.98652 -2.09977,9.8894 -3.55078,14.70508 1.44814,-4.80755 2.64295,-9.71046 3.55078,-14.70508 z m -132.73047,15.85742 c 0.55166,1.77311 1.3227,3.46613 1.94531,5.21485 1.05951,2.9749 2.03773,5.98079 3.30664,8.87304 -2.01179,-4.58475 -3.75837,-9.28704 -5.25195,-14.08789 z m 128.82812,0 c -1.49191,4.79536 -3.23711,9.4925 -5.24609,14.07227 1.26631,-2.88731 2.24314,-5.88777 3.30078,-8.85742 0.62261,-1.74872 1.39366,-3.44174 1.94531,-5.21485 z m -123.16406,14.9961 c 0.23982,0.53541 0.52867,1.04604 0.77539,1.57812 1.07154,2.31229 2.16523,4.61376 3.36524,6.85938 -1.47676,-2.76361 -2.85899,-5.57458 -4.14063,-8.4375 z m 117.48438,0.0312 c -1.27771,2.85209 -2.65361,5.65276 -4.125,8.40625 1.2,-2.24562 2.29369,-4.54709 3.36523,-6.85938 0.24183,-0.52151 0.52458,-1.02216 0.75977,-1.54687 z m -113.06055,8.93554 c 1.51538,2.80557 3.1231,5.55929 4.83399,8.25 -1.71116,-2.69181 -3.31837,-5.44384 -4.83399,-8.25 z m 108.65234,0 c -1.51566,2.80616 -3.12278,5.5582 -4.83398,8.25 1.71088,-2.69071 3.31861,-5.44443 4.83398,-8.25 z m -103.76171,8.33985 c 8.87667,13.93603 20.33433,26.258 33.9414,36.2207 2.70351,1.97974 5.49345,3.86491 8.36328,5.65234 -17.31343,-10.78439 -31.66137,-25.15916 -42.30468,-41.87304 z m 98.87109,0 c -10.63874,16.70613 -24.98009,31.07473 -42.2832,41.85742 2.86171,-1.78323 5.64543,-3.66252 8.34179,-5.63672 13.60708,-9.96269 25.06474,-22.28467 33.94141,-36.2207 z"
             id="path6057"
             inkscape:connector-curvature="0" />
        </g>
      </g>
    </g>
    <g
       id="g5917"
       inkscape:transform-center-x="-3.2759748e-06"
       style="opacity:0.75;fill:#00ff00;stroke:#00ff00;stroke-width:13.22920036"
       transform="matrix(0.80854881,0,0,0.74639694,17.227953,27.373148)">
      <g
         id="path5913">
        <path
           style="color:#000000;stroke:none;stroke-width:13.22920036"
           d="m 173.75775,138.03215 a 88.13029,88.13029 161.39353 0 1 -63.92643,21.52166 c 0,45.67764 24.36843,87.88565 63.92643,110.72447 39.55799,-22.83882 63.927,-65.04683 63.927,-110.72447 v 0 a 88.132405,88.132405 18.606318 0 1 -63.927,-21.52166 z"
           id="path5957"
           inkscape:connector-curvature="0" />
        <path
           style="color:#000000;stroke:none"
           d="m 173.75781,129.25391 -4.34961,3.79492 c -16.29181,14.21549 -37.55503,21.37442 -59.12695,19.90625 l -7.06445,-0.48047 v 7.08008 c 0,48.03012 25.63902,92.43608 67.23437,116.45117 l 3.30664,1.91016 3.30664,-1.91016 c 41.59532,-24.01507 67.23438,-68.42099 67.23438,-116.45117 v -7.08008 l -7.0625,0.48047 c -21.57211,1.4681 -42.83683,-5.69079 -59.12891,-19.90625 z m 0,17.19336 c 16.37839,12.68141 36.40605,19.65227 57.08789,19.83984 -2.18648,39.40984 -23.45531,75.32142 -57.08789,96.20508 -33.63254,-20.88365 -54.90146,-56.79519 -57.08789,-96.20508 20.68189,-0.18742 40.70958,-7.15827 57.08789,-19.83984 z"
           id="path5959"
           inkscape:connector-curvature="0" />
      </g>
      <g
         id="path5915">
        <path
           style="color:#000000;stroke:none;stroke-width:13.22920036"
           d="m 173.75781,129.25391 -4.34961,3.79492 c -16.29181,14.21549 -37.55503,21.37442 -59.12695,19.90625 l -7.06445,-0.48047 v 7.08008 c 0,48.03012 25.63902,92.43608 67.23437,116.45117 l 3.30664,1.91016 3.30664,-1.91016 c 41.59532,-24.01507 67.23438,-68.42099 67.23438,-116.45117 v -7.08008 l -7.0625,0.48047 c -21.57211,1.4681 -42.83683,-5.69079 -59.12891,-19.90625 z m 0,17.19336 c 16.37839,12.68141 36.40605,19.65227 57.08789,19.83984 -2.18648,39.40984 -23.45531,75.32142 -57.08789,96.20508 -33.63254,-20.88365 -54.90146,-56.79519 -57.08789,-96.20508 20.68189,-0.18742 40.70958,-7.15827 57.08789,-19.83984 z"
           id="path5963"
           inkscape:connector-curvature="0" />
        <path
           style="color:#000000;stroke:none"
           d="m 173.75781,120.47656 -4.34765,3.79297 -4.35157,3.79492 c -14.97243,13.06427 -34.50332,19.64028 -54.32812,18.29102 l -14.128908,-0.96094 v 14.16016 c 0,50.38347 26.908118,96.98753 70.541018,122.17968 l 6.61523,3.82032 6.61328,-3.82032 c 43.63372,-25.19193 70.54297,-71.79559 70.54297,-122.17968 v -14.16016 l -14.12695,0.96094 c -19.82501,1.3492 -39.3575,-5.22687 -54.33008,-18.29102 z m -0.002,17.55664 h 0.002 0.002 c 1.0677,0.93158 2.21415,1.74594 3.32031,2.6211 l -3.32227,-2.57227 -3.32226,2.57227 c 1.10612,-0.87515 2.25263,-1.68952 3.32031,-2.6211 z m 0.002,16.52344 c 14.72566,10.29177 31.85129,16.51765 49.71289,17.97852 -3.79243,33.20475 -21.85179,63.08907 -49.71289,81.86523 -27.86108,-18.77615 -45.92048,-48.66046 -49.71289,-81.86523 17.86167,-1.46077 34.98726,-7.68661 49.71289,-17.97852 z m 42.3418,3.70117 c 0.31595,0.0569 0.63059,0.11839 0.94726,0.17188 -0.3168,-0.0536 -0.6312,-0.1148 -0.94726,-0.17188 z m -84.69336,0.004 c -0.31004,0.0559 -0.61893,0.11338 -0.92969,0.16601 0.31063,-0.0525 0.61976,-0.11021 0.92969,-0.16601 z m -7.22656,1 c -0.35235,0.0337 -0.70559,0.0565 -1.0586,0.0859 0.35281,-0.0294 0.70642,-0.0523 1.0586,-0.0859 z m 99.15429,0 c 0.3542,0.0338 0.70962,0.0564 1.06446,0.0859 -0.35494,-0.0296 -0.71017,-0.052 -1.06446,-0.0859 z m -113.50195,0.29297 c 2.17767,0.14821 4.34579,0.13225 6.51367,0.11914 l -6.50781,0.0605 c -8e-5,-0.0602 -0.006,-0.11947 -0.006,-0.17968 z m 127.85156,0 c 0,0.0602 -0.006,0.11949 -0.006,0.17968 l -6.50781,-0.0605 c 2.16744,0.0131 4.33648,0.029 6.51367,-0.11914 z m -127.61523,7.11914 c 0.27956,5.025 0.87862,9.98879 1.73437,14.88476 -0.85589,-4.89726 -1.4546,-9.85984 -1.73437,-14.88476 z m 127.37891,0 c -0.27977,5.02492 -0.87848,9.9875 -1.73438,14.88476 0.85576,-4.89597 1.45481,-9.85977 1.73438,-14.88476 z m -125.50782,15.69726 c 0.86776,4.78214 2.01206,9.48802 3.40625,14.10352 -1.39419,-4.61762 -2.53844,-9.32021 -3.40625,-14.10352 z m 123.63672,0 c -0.86781,4.78331 -2.01205,9.4859 -3.40625,14.10352 1.3942,-4.6155 2.53849,-9.32138 3.40625,-14.10352 z M 115.625,197.38867 c 1.43399,4.62165 3.11538,9.15233 5.05469,13.5625 -1.93912,-4.41275 -3.62084,-8.93888 -5.05469,-13.5625 z m 116.26562,0 c -1.43385,4.62363 -3.11556,9.14975 -5.05468,13.5625 1.93931,-4.41017 3.62069,-8.94085 5.05468,-13.5625 z M 120.95703,211.5625 c 10.25678,22.99554 27.2232,42.80082 49.22656,56.48828 -22.00408,-13.68851 -38.97138,-33.47981 -49.22656,-56.48828 z m 105.60156,0 c -10.25518,23.00847 -27.22249,42.79979 -49.22656,56.48828 22.0034,-13.68747 38.9698,-33.49274 49.22656,-56.48828 z"
           id="path5965"
           inkscape:connector-curvature="0" />
      </g>
    </g>
    <g
       id="path5806"
       inkscape:transform-center-x="-3.51017e-06"
       style="opacity:0.75"
       transform="matrix(0.80854881,0,0,0.74639694,17.22795,26.948194)">
      <path
         style="color:#000000;fill:#0000ff;stroke-width:13.22920036"
         d="m 173.75775,138.03215 a 88.13029,88.13029 161.39353 0 1 -63.92643,21.52166 c 0,45.67764 24.36843,87.88565 63.92643,110.72447 39.55799,-22.83882 63.927,-65.04683 63.927,-110.72447 v 0 a 88.132405,88.132405 18.606318 0 1 -63.927,-21.52166 z"
         id="path5888"
         inkscape:connector-curvature="0" />
      <path
         style="color:#000000;fill:#0000ff"
         d="m 173.75781,129.25391 -4.34961,3.79492 c -16.29181,14.21549 -37.55503,21.37442 -59.12695,19.90625 l -7.06445,-0.48047 v 7.08008 c 0,48.03012 25.63902,92.43608 67.23437,116.45117 l 3.30664,1.91016 3.30664,-1.91016 c 41.59532,-24.01507 67.23438,-68.42099 67.23438,-116.45117 v -7.08008 l -7.0625,0.48047 c -21.57211,1.4681 -42.83683,-5.69079 -59.12891,-19.90625 z m 0,17.19336 c 16.37839,12.68141 36.40605,19.65227 57.08789,19.83984 -2.18648,39.40984 -23.45531,75.32142 -57.08789,96.20508 -33.63254,-20.88365 -54.90146,-56.79519 -57.08789,-96.20508 20.68189,-0.18742 40.70958,-7.15827 57.08789,-19.83984 z"
         id="path5885"
         inkscape:connector-curvature="0" />
    </g>
    <path
       style="opacity:0.5;fill:#ff0000;fill-opacity:1;stroke:none;stroke-width:0.02753859;stroke-miterlimit:4;stroke-dasharray:none;stroke-opacity:1"
       d="m 157.71939,129.54934 a 71.257641,65.780178 0 0 1 -51.68764,16.0637 c 0,34.09364 19.70307,65.59758 51.68764,82.6444 31.98457,-17.04682 51.6881,-48.55076 51.6881,-82.6444 v 0 a 71.259352,65.781757 0 0 1 -51.6881,-16.0637 z"
       id="path5891"
       inkscape:connector-curvature="0" />
    <g
       id="g6200"
       transform="matrix(1.4179416,0,0,1.3089467,-102.25557,-84.903084)">
      <path
         id="rect892"
         d="m 182.63581,197.00465 18.52699,4.16068 -18.52699,4.16067 -18.527,-4.16067 z"
         style="opacity:1;fill:#ccff00;fill-opacity:1;stroke:none;stroke-width:0.0915552;stroke-miterlimit:4;stroke-dasharray:none"
         inkscape:connector-curvature="0" />
      <path
         id="path903"
         d="m 186.34129,199.91715 1.8527,0.41607 -9.2635,2.08033 -1.8527,-0.41606 z"
         style="color:#000000;font-style:normal;font-variant:normal;font-weight:normal;font-stretch:normal;font-size:medium;line-height:normal;font-family:sans-serif;font-variant-ligatures:normal;font-variant-position:normal;font-variant-caps:normal;font-variant-numeric:normal;font-variant-alternates:normal;font-feature-settings:normal;text-indent:0;text-align:start;text-decoration:none;text-decoration-line:none;text-decoration-style:solid;text-decoration-color:#000000;letter-spacing:normal;word-spacing:normal;text-transform:none;writing-mode:lr-tb;direction:ltr;text-orientation:mixed;dominant-baseline:auto;baseline-shift:baseline;text-anchor:start;white-space:normal;shape-padding:0;clip-rule:nonzero;display:inline;overflow:visible;visibility:visible;isolation:auto;mix-blend-mode:normal;color-interpolation:sRGB;color-interpolation-filters:linearRGB;solid-color:#000000;solid-opacity:1;vector-effect:none;fill:#aa8800;fill-opacity:1;fill-rule:nonzero;stroke:none;stroke-width:0.102126;stroke-linecap:butt;stroke-linejoin:miter;stroke-miterlimit:4;stroke-dasharray:none;stroke-dashoffset:0;stroke-opacity:1;color-rendering:auto;image-rendering:auto;shape-rendering:auto;text-rendering:auto;enable-background:accumulate"
         inkscape:connector-curvature="0" />
      <path
         id="path905"
         d="m 186.3412,199.883 -0.076,0.0171 -9.3395,2.0974 2.00469,0.4502 9.41548,-2.11447 z m 0,0.0683 1.70072,0.38193 -9.11152,2.04621 -1.70072,-0.38194 z"
         style="color:#000000;font-style:normal;font-variant:normal;font-weight:normal;font-stretch:normal;font-size:medium;line-height:normal;font-family:sans-serif;font-variant-ligatures:normal;font-variant-position:normal;font-variant-caps:normal;font-variant-numeric:normal;font-variant-alternates:normal;font-feature-settings:normal;text-indent:0;text-align:start;text-decoration:none;text-decoration-line:none;text-decoration-style:solid;text-decoration-color:#000000;letter-spacing:normal;word-spacing:normal;text-transform:none;writing-mode:lr-tb;direction:ltr;text-orientation:mixed;dominant-baseline:auto;baseline-shift:baseline;text-anchor:start;white-space:normal;shape-padding:0;clip-rule:nonzero;display:inline;overflow:visible;visibility:visible;isolation:auto;mix-blend-mode:normal;color-interpolation:sRGB;color-interpolation-filters:linearRGB;solid-color:#000000;solid-opacity:1;vector-effect:none;fill:#666666;fill-opacity:1;fill-rule:nonzero;stroke:none;stroke-width:0.102126;stroke-linecap:butt;stroke-linejoin:miter;stroke-miterlimit:4;stroke-dasharray:none;stroke-dashoffset:0;stroke-opacity:1;color-rendering:auto;image-rendering:auto;shape-rendering:auto;text-rendering:auto;enable-background:accumulate"
         inkscape:connector-curvature="0" />
      <path
         id="path2910"
         d="m 201.16369,201.16539 -18.52748,4.14979 v 15.48723 l 18.52748,-4.14979 z"
         style="color:#000000;font-style:normal;font-variant:normal;font-weight:normal;font-stretch:normal;font-size:medium;line-height:normal;font-family:sans-serif;font-variant-ligatures:normal;font-variant-position:normal;font-variant-caps:normal;font-variant-numeric:normal;font-variant-alternates:normal;font-feature-settings:normal;text-indent:0;text-align:start;text-decoration:none;text-decoration-line:none;text-decoration-style:solid;text-decoration-color:#000000;letter-spacing:normal;word-spacing:normal;text-transform:none;writing-mode:lr-tb;direction:ltr;text-orientation:mixed;dominant-baseline:auto;baseline-shift:baseline;text-anchor:start;white-space:normal;shape-padding:0;clip-rule:nonzero;display:inline;overflow:visible;visibility:visible;isolation:auto;mix-blend-mode:normal;color-interpolation:sRGB;color-interpolation-filters:linearRGB;solid-color:#000000;solid-opacity:1;vector-effect:none;fill:#55d400;fill-opacity:1;fill-rule:nonzero;stroke:none;stroke-width:0.49405;stroke-opacity:1;color-rendering:auto;image-rendering:auto;shape-rendering:auto;text-rendering:auto;enable-background:accumulate"
         inkscape:connector-curvature="0" />
      <path
         id="path2912"
         d="m 201.2092,201.11533 v 0.0395 15.52758 l -18.61909,4.17032 v -15.56708 z m -0.0913,0.10034 -18.4355,4.12919 v 15.4073 l 18.4355,-4.12919 z"
         style="color:#000000;font-style:normal;font-variant:normal;font-weight:normal;font-stretch:normal;font-size:medium;line-height:normal;font-family:sans-serif;font-variant-ligatures:normal;font-variant-position:normal;font-variant-caps:normal;font-variant-numeric:normal;font-variant-alternates:normal;font-feature-settings:normal;text-indent:0;text-align:start;text-decoration:none;text-decoration-line:none;text-decoration-style:solid;text-decoration-color:#000000;letter-spacing:normal;word-spacing:normal;text-transform:none;writing-mode:lr-tb;direction:ltr;text-orientation:mixed;dominant-baseline:auto;baseline-shift:baseline;text-anchor:start;white-space:normal;shape-padding:0;clip-rule:nonzero;display:inline;overflow:visible;visibility:visible;isolation:auto;mix-blend-mode:normal;color-interpolation:sRGB;color-interpolation-filters:linearRGB;solid-color:#000000;solid-opacity:1;vector-effect:none;fill:#55d400;fill-opacity:1;fill-rule:nonzero;stroke:none;stroke-width:0.49405;stroke-opacity:1;color-rendering:auto;image-rendering:auto;shape-rendering:auto;text-rendering:auto;enable-background:accumulate"
         inkscape:connector-curvature="0" />
      <path
         id="rect929"
         d="m 164.10875,201.16533 18.52746,4.14978 v 15.48724 l -18.52746,-4.14979 z"
         style="opacity:0.5;fill:#66ff00;fill-opacity:1;stroke:none;stroke-width:0.0851038;stroke-miterlimit:4;stroke-dasharray:none"
         inkscape:connector-curvature="0" />
      <path
         id="path6358"
         d="m 189.02562,186.67455 c 1.6547,-1.04186 1.61537,-2.74639 -0.11802,-3.75676 -1.56382,-0.91153 -4.01304,-0.91881 -5.58949,-0.016 -1.12509,0.64428 -1.55045,1.57788 -1.27742,2.44139 l -5.68046,3.57659 -0.0623,1.79054 c -0.007,0.17945 0.22877,0.32521 0.51367,0.3186 l 2.11845,-0.0493 c 0.36649,-0.009 0.64551,-0.2101 0.60911,-0.43986 l -0.0369,-0.23291 c -0.0247,-0.15593 0.13703,-0.29942 0.37896,-0.3362 l 1.33977,-0.20361 c 0.23188,-0.0353 0.41289,-0.14919 0.46882,-0.29518 l 0.35375,-0.92286 c 0.0438,-0.11444 0.18573,-0.20375 0.3675,-0.23138 l 1.46593,-0.2228 c 0.23187,-0.0352 0.41283,-0.14919 0.46882,-0.29517 l 0.21057,-0.54909 c 1.49155,0.37663 3.26107,0.18482 4.46933,-0.57597 z m -0.98656,-3.06411 c 0.46534,0.29299 0.46534,0.76796 0,1.06089 -0.46534,0.29298 -1.21971,0.29298 -1.68495,0 -0.46534,-0.29299 -0.46534,-0.76796 0,-1.06089 0.46524,-0.29299 1.21961,-0.29299 1.68495,0 z"
         style="opacity:1;fill:#b3b3b3;stroke-width:0.0424713"
         inkscape:connector-curvature="0" />
      <path
         id="path6"
         d="m 188.38754,186.67451 c 1.6547,-1.04186 1.61537,-2.74639 -0.11802,-3.75676 -1.56382,-0.91153 -4.01304,-0.91881 -5.58949,-0.016 -1.12509,0.64428 -1.55045,1.57788 -1.27742,2.44139 l -5.68046,3.57659 -0.0623,1.79054 c -0.007,0.17945 0.22877,0.32521 0.51367,0.3186 l 2.11845,-0.0493 c 0.36649,-0.009 0.64551,-0.2101 0.60911,-0.43986 l -0.0369,-0.23291 c -0.0247,-0.15593 0.13703,-0.29942 0.37896,-0.3362 l 1.33977,-0.20361 c 0.23188,-0.0353 0.41289,-0.14919 0.46882,-0.29518 l 0.35375,-0.92286 c 0.0438,-0.11444 0.18573,-0.20375 0.3675,-0.23138 l 1.46593,-0.2228 c 0.23187,-0.0352 0.41283,-0.14919 0.46882,-0.29517 l 0.21057,-0.54909 c 1.49155,0.37663 3.26107,0.18482 4.46933,-0.57597 z m -0.98656,-3.06411 c 0.46534,0.29299 0.46534,0.76796 0,1.06089 -0.46534,0.29298 -1.21971,0.29298 -1.68495,0 -0.46534,-0.29299 -0.46534,-0.76796 0,-1.06089 0.46524,-0.29299 1.21961,-0.29299 1.68495,0 z"
         style="opacity:1;fill:#ffedb5;stroke-width:0.0424713"
         inkscape:connector-curvature="0" />
      <path
         inkscape:connector-curvature="0"
         style="opacity:1;fill:#b3b3b3;stroke-width:0.0153399"
         d="m 198.03108,196.45655 c 0.55055,-0.4085 0.53746,-1.07682 -0.0393,-1.47297 -0.52031,-0.3574 -1.33521,-0.36025 -1.85972,-0.006 -0.37434,0.25261 -0.51586,0.61864 -0.42502,0.95723 l -1.88999,1.40232 -0.0207,0.70205 c -0.002,0.0704 0.0761,0.12751 0.17091,0.12491 l 0.70485,-0.0194 c 0.12193,-0.004 0.21477,-0.0824 0.20266,-0.17246 l -0.0123,-0.0913 c -0.008,-0.0611 0.0456,-0.11739 0.12608,-0.13181 l 0.44577,-0.0798 c 0.0771,-0.0138 0.13737,-0.0585 0.15598,-0.11573 l 0.1177,-0.36185 c 0.0146,-0.0448 0.0618,-0.0799 0.12227,-0.0907 l 0.48774,-0.0874 c 0.0771,-0.0138 0.13736,-0.0585 0.15599,-0.11574 l 0.0701,-0.21528 c 0.49626,0.14766 1.08501,0.0725 1.48702,-0.22583 z m -0.32824,-1.2014 c 0.15482,0.11489 0.15482,0.30111 0,0.41596 -0.15483,0.11488 -0.40582,0.11488 -0.56061,0 -0.15483,-0.11487 -0.15483,-0.3011 0,-0.41596 0.15479,-0.11487 0.40578,-0.11487 0.56061,0 z"
         id="path862" />
      <path
         id="path3363"
         d="m 197.71592,196.45647 c 0.55055,-0.4085 0.53746,-1.07682 -0.0393,-1.47297 -0.52031,-0.3574 -1.33521,-0.36025 -1.85972,-0.006 -0.37434,0.25261 -0.51586,0.61864 -0.42502,0.95723 l -1.88999,1.40232 -0.0207,0.70205 c -0.002,0.0704 0.0761,0.12751 0.17091,0.12491 l 0.70485,-0.0194 c 0.12193,-0.004 0.21477,-0.0824 0.20266,-0.17246 l -0.0123,-0.0913 c -0.008,-0.0611 0.0456,-0.11739 0.12608,-0.13181 l 0.44577,-0.0798 c 0.0771,-0.0138 0.13737,-0.0585 0.15598,-0.11573 l 0.1177,-0.36185 c 0.0146,-0.0448 0.0618,-0.0799 0.12227,-0.0907 l 0.48774,-0.0874 c 0.0771,-0.0138 0.13736,-0.0585 0.15599,-0.11574 l 0.0701,-0.21528 c 0.49626,0.14766 1.08501,0.0725 1.48702,-0.22583 z m -0.32824,-1.2014 c 0.15482,0.11489 0.15482,0.30111 0,0.41596 -0.15483,0.11488 -0.40582,0.11488 -0.56061,0 -0.15483,-0.11487 -0.15483,-0.3011 0,-0.41596 0.15479,-0.11487 0.40578,-0.11487 0.56061,0 z"
         style="opacity:1;fill:#ff9955;stroke-width:0.0153399"
         inkscape:connector-curvature="0" />
      <path
         id="path6298"
         d="m 164.99266,188.66316 c 0.55055,-0.40849 0.53746,-1.07681 -0.0393,-1.47296 -0.52031,-0.3574 -1.3352,-0.36026 -1.85972,-0.006 -0.37433,0.25262 -0.51586,0.61866 -0.42501,0.95723 l -1.88999,1.40233 -0.0207,0.70204 c -0.002,0.0704 0.0761,0.12753 0.17091,0.12492 l 0.70484,-0.0194 c 0.12194,-0.004 0.21477,-0.0824 0.20266,-0.17247 l -0.0123,-0.0913 c -0.008,-0.0611 0.0456,-0.1174 0.12609,-0.13182 l 0.44576,-0.0798 c 0.0771,-0.0138 0.13738,-0.0585 0.15599,-0.11573 l 0.1177,-0.36184 c 0.0146,-0.0448 0.0618,-0.0799 0.12227,-0.0907 l 0.48774,-0.0874 c 0.0771,-0.0138 0.13736,-0.0585 0.15598,-0.11574 l 0.0701,-0.21529 c 0.49627,0.14767 1.08502,0.0725 1.48702,-0.22583 z m -0.32824,-1.20139 c 0.15483,0.11488 0.15483,0.30111 0,0.41596 -0.15483,0.11488 -0.40582,0.11488 -0.56061,0 -0.15483,-0.11487 -0.15483,-0.30111 0,-0.41596 0.15479,-0.11487 0.40578,-0.11487 0.56061,0 z"
         style="opacity:1;fill:#999999;stroke-width:0.0153399"
         inkscape:connector-curvature="0" />
      <path
         id="path3365"
         d="m 164.60578,188.66309 c 0.55055,-0.40849 0.53746,-1.07681 -0.0393,-1.47296 -0.52031,-0.3574 -1.3352,-0.36026 -1.85972,-0.006 -0.37433,0.25262 -0.51586,0.61866 -0.42501,0.95723 l -1.88999,1.40233 -0.0207,0.70204 c -0.002,0.0704 0.0761,0.12753 0.17091,0.12492 l 0.70484,-0.0194 c 0.12194,-0.004 0.21477,-0.0824 0.20266,-0.17247 l -0.0123,-0.0913 c -0.008,-0.0611 0.0456,-0.1174 0.12609,-0.13182 l 0.44576,-0.0798 c 0.0771,-0.0138 0.13738,-0.0585 0.15599,-0.11573 l 0.1177,-0.36184 c 0.0146,-0.0448 0.0618,-0.0799 0.12227,-0.0907 l 0.48774,-0.0874 c 0.0771,-0.0138 0.13736,-0.0585 0.15598,-0.11574 l 0.0701,-0.21529 c 0.49627,0.14767 1.08502,0.0725 1.48702,-0.22583 z m -0.32824,-1.20139 c 0.15483,0.11488 0.15483,0.30111 0,0.41596 -0.15483,0.11488 -0.40582,0.11488 -0.56061,0 -0.15483,-0.11487 -0.15483,-0.30111 0,-0.41596 0.15479,-0.11487 0.40578,-0.11487 0.56061,0 z"
         style="opacity:1;fill:#80ff80;stroke-width:0.0153399"
         inkscape:connector-curvature="0" />
      <path
         id="path6318"
         d="m 161.97521,199.9145 c 0.55055,-0.4085 0.53746,-1.07682 -0.0393,-1.47297 -0.52031,-0.3574 -1.33521,-0.36025 -1.85972,-0.006 -0.37433,0.25261 -0.51586,0.61866 -0.42502,0.95723 l -1.88998,1.40233 -0.0207,0.70204 c -0.002,0.0704 0.0761,0.12751 0.1709,0.12492 l 0.70485,-0.0194 c 0.12193,-0.004 0.21477,-0.0824 0.20266,-0.17246 l -0.0123,-0.0913 c -0.008,-0.0611 0.0456,-0.1174 0.12608,-0.13182 l 0.44577,-0.0798 c 0.0771,-0.0138 0.13737,-0.0585 0.15598,-0.11573 l 0.1177,-0.36184 c 0.0146,-0.0448 0.0618,-0.0799 0.12227,-0.0907 l 0.48774,-0.0874 c 0.0771,-0.0138 0.13736,-0.0585 0.15599,-0.11574 l 0.0701,-0.21528 c 0.49626,0.14766 1.08501,0.0725 1.48702,-0.22583 z m -0.32824,-1.20139 c 0.15482,0.11488 0.15482,0.3011 0,0.41595 -0.15483,0.11488 -0.40582,0.11488 -0.56061,0 -0.15483,-0.11487 -0.15483,-0.3011 0,-0.41595 0.15479,-0.11488 0.40578,-0.11488 0.56061,0 z"
         style="opacity:1;fill:#b3b3b3;stroke-width:0.0153399"
         inkscape:connector-curvature="0" />
      <path
         id="path3367"
         d="m 161.67763,199.9145 c 0.55055,-0.4085 0.53746,-1.07682 -0.0393,-1.47297 -0.52031,-0.3574 -1.33521,-0.36025 -1.85972,-0.006 -0.37433,0.25261 -0.51586,0.61866 -0.42502,0.95723 l -1.88998,1.40233 -0.0207,0.70204 c -0.002,0.0704 0.0761,0.12751 0.1709,0.12492 l 0.70485,-0.0194 c 0.12193,-0.004 0.21477,-0.0824 0.20266,-0.17246 l -0.0123,-0.0913 c -0.008,-0.0611 0.0456,-0.1174 0.12608,-0.13182 l 0.44577,-0.0798 c 0.0771,-0.0138 0.13737,-0.0585 0.15598,-0.11573 l 0.1177,-0.36184 c 0.0146,-0.0448 0.0618,-0.0799 0.12227,-0.0907 l 0.48774,-0.0874 c 0.0771,-0.0138 0.13736,-0.0585 0.15599,-0.11574 l 0.0701,-0.21528 c 0.49626,0.14766 1.08501,0.0725 1.48702,-0.22583 z m -0.32824,-1.20139 c 0.15482,0.11488 0.15482,0.3011 0,0.41595 -0.15483,0.11488 -0.40582,0.11488 -0.56061,0 -0.15483,-0.11487 -0.15483,-0.3011 0,-0.41595 0.15479,-0.11488 0.40578,-0.11488 0.56061,0 z"
         style="opacity:1;fill:#e5d5ff;stroke-width:0.0153399"
         inkscape:connector-curvature="0" />
      <path
         id="path6338"
         d="m 172.23455,192.76489 c 0.55055,-0.4085 0.53747,-1.07682 -0.0393,-1.47297 -0.52031,-0.3574 -1.3352,-0.36025 -1.85972,-0.006 -0.37433,0.25262 -0.51586,0.61866 -0.42501,0.95723 l -1.88999,1.40232 -0.0207,0.70206 c -0.002,0.0704 0.0761,0.1275 0.17091,0.12491 l 0.70484,-0.0194 c 0.12194,-0.004 0.21477,-0.0824 0.20266,-0.17246 l -0.0123,-0.0913 c -0.008,-0.0611 0.0456,-0.11739 0.12609,-0.13181 l 0.44577,-0.0798 c 0.0771,-0.0138 0.13737,-0.0585 0.15598,-0.11573 l 0.1177,-0.36185 c 0.0146,-0.0448 0.0618,-0.0799 0.12227,-0.0907 l 0.48774,-0.0874 c 0.0771,-0.0138 0.13736,-0.0585 0.15598,-0.11574 l 0.0701,-0.21528 c 0.49627,0.14766 1.08502,0.0725 1.48703,-0.22583 z m -0.32824,-1.2014 c 0.15483,0.11489 0.15483,0.30111 0,0.41596 -0.15483,0.11488 -0.40582,0.11488 -0.56061,0 -0.15483,-0.11487 -0.15483,-0.3011 0,-0.41596 0.15479,-0.11487 0.40578,-0.11487 0.56061,0 z"
         style="opacity:1;fill:#b3b3b3;stroke-width:0.0153399"
         inkscape:connector-curvature="0" />
      <path
         id="path3369"
         d="m 171.80654,192.76489 c 0.55055,-0.4085 0.53747,-1.07682 -0.0393,-1.47297 -0.52031,-0.3574 -1.3352,-0.36025 -1.85972,-0.006 -0.37433,0.25262 -0.51586,0.61866 -0.42501,0.95723 l -1.88999,1.40232 -0.0207,0.70206 c -0.002,0.0704 0.0761,0.1275 0.17091,0.12491 l 0.70484,-0.0194 c 0.12194,-0.004 0.21477,-0.0824 0.20266,-0.17246 l -0.0123,-0.0913 c -0.008,-0.0611 0.0456,-0.11739 0.12609,-0.13181 l 0.44577,-0.0798 c 0.0771,-0.0138 0.13737,-0.0585 0.15598,-0.11573 l 0.1177,-0.36185 c 0.0146,-0.0448 0.0618,-0.0799 0.12227,-0.0907 l 0.48774,-0.0874 c 0.0771,-0.0138 0.13736,-0.0585 0.15598,-0.11574 l 0.0701,-0.21528 c 0.49627,0.14766 1.08502,0.0725 1.48703,-0.22583 z m -0.32824,-1.2014 c 0.15483,0.11489 0.15483,0.30111 0,0.41596 -0.15483,0.11488 -0.40582,0.11488 -0.56061,0 -0.15483,-0.11487 -0.15483,-0.3011 0,-0.41596 0.15479,-0.11487 0.40578,-0.11487 0.56061,0 z"
         style="opacity:1;fill:#aaffee;stroke-width:0.0153399"
         inkscape:connector-curvature="0" />
      <path
         inkscape:connector-curvature="0"
         style="opacity:1;fill:#b3b3b3;stroke-width:0.01533984"
         d="m 205.12172,185.88612 c 0.55055,-0.4085 0.53746,-1.07682 -0.0393,-1.47297 -0.5203,-0.3574 -1.33519,-0.36025 -1.8597,-0.006 -0.37433,0.25261 -0.51586,0.61865 -0.42501,0.95723 l -1.88998,1.40232 -0.0207,0.70205 c -0.002,0.0704 0.0761,0.12751 0.17091,0.12491 l 0.70483,-0.0194 c 0.12194,-0.004 0.21477,-0.0824 0.20266,-0.17246 l -0.0123,-0.0913 c -0.008,-0.0611 0.0456,-0.11739 0.12609,-0.13181 l 0.44576,-0.0798 c 0.0772,-0.0138 0.13738,-0.0585 0.15599,-0.11573 l 0.1177,-0.36185 c 0.0146,-0.0448 0.0618,-0.0799 0.12226,-0.0907 l 0.48774,-0.0874 c 0.0772,-0.0138 0.13736,-0.0585 0.15598,-0.11574 l 0.0701,-0.21528 c 0.49627,0.14766 1.08501,0.0725 1.48702,-0.22583 z m -0.32824,-1.2014 c 0.15483,0.11489 0.15483,0.30111 0,0.41596 -0.15483,0.11488 -0.40582,0.11488 -0.56061,0 -0.15482,-0.11487 -0.15482,-0.3011 0,-0.41596 0.15479,-0.11487 0.40578,-0.11487 0.56061,0 z"
         id="path866" />
      <path
         id="path3371"
         d="m 204.78646,185.69421 c 0.55056,-0.4085 0.53747,-1.07682 -0.0393,-1.47297 -0.5203,-0.3574 -1.3352,-0.36025 -1.85971,-0.006 -0.37434,0.25261 -0.51587,0.61865 -0.42502,0.95723 l -1.88999,1.40232 -0.0207,0.70205 c -0.002,0.0704 0.0761,0.12751 0.17091,0.12491 l 0.70484,-0.0194 c 0.12194,-0.004 0.21477,-0.0824 0.20266,-0.17246 l -0.0123,-0.0913 c -0.008,-0.0611 0.0456,-0.11739 0.12609,-0.13181 l 0.44576,-0.0798 c 0.0772,-0.0138 0.13738,-0.0585 0.15599,-0.11573 l 0.1177,-0.36185 c 0.0146,-0.0448 0.0618,-0.0799 0.12227,-0.0907 l 0.48774,-0.0874 c 0.0772,-0.0138 0.13736,-0.0585 0.15598,-0.11574 l 0.0701,-0.21528 c 0.49627,0.14766 1.08502,0.0725 1.48703,-0.22583 z m -0.32824,-1.2014 c 0.15483,0.11489 0.15483,0.30111 0,0.41596 -0.15483,0.11488 -0.40582,0.11488 -0.56061,0 -0.15483,-0.11487 -0.15483,-0.3011 0,-0.41596 0.15479,-0.11487 0.40578,-0.11487 0.56061,0 z"
         style="opacity:1;fill:#ddff55;stroke-width:0.0153399"
         inkscape:connector-curvature="0" />
      <path
         id="path3373"
         d="m 184.95981,197.52638 c 0.55055,-0.40849 0.53746,-1.07681 -0.0393,-1.47297 -0.52031,-0.35739 -1.33521,-0.36025 -1.85972,-0.006 -0.37433,0.2526 -0.51586,0.61865 -0.42502,0.95723 l -1.88998,1.40233 -0.0207,0.70204 c -0.002,0.0704 0.0761,0.12751 0.1709,0.12492 l 0.70485,-0.0194 c 0.12193,-0.004 0.21477,-0.0824 0.20266,-0.17247 l -0.0123,-0.0913 c -0.008,-0.0611 0.0456,-0.1174 0.12609,-0.13182 l 0.44576,-0.0798 c 0.0772,-0.0138 0.13737,-0.0585 0.15598,-0.11573 l 0.1177,-0.36184 c 0.0146,-0.0448 0.0618,-0.0799 0.12228,-0.0907 l 0.48773,-0.0874 c 0.0772,-0.0138 0.13736,-0.0585 0.15599,-0.11574 l 0.0701,-0.21528 c 0.49626,0.14767 1.08501,0.0725 1.48702,-0.22583 z m -0.32824,-1.20139 c 0.15482,0.11488 0.15482,0.3011 0,0.41596 -0.15483,0.11488 -0.40582,0.11488 -0.56061,0 -0.15483,-0.11488 -0.15483,-0.30111 0,-0.41596 0.15479,-0.11487 0.40578,-0.11487 0.56061,0 z"
         style="opacity:1;fill:#ccaaff;stroke-width:0.0153399"
         inkscape:connector-curvature="0" />
      <path
         inkscape:connector-curvature="0"
         style="opacity:1;fill:#999999;stroke-width:0.01533985"
         d="m 209.22684,193.16295 c 0.55055,-0.40849 0.53746,-1.07681 -0.0393,-1.47296 -0.52031,-0.3574 -1.3352,-0.36026 -1.8597,-0.006 -0.37433,0.25261 -0.51586,0.61865 -0.42502,0.95722 l -1.88997,1.40234 -0.0207,0.70203 c -0.002,0.0704 0.0761,0.12753 0.1709,0.12493 l 0.70484,-0.0194 c 0.12193,-0.004 0.21477,-0.0824 0.20266,-0.17247 l -0.0123,-0.0913 c -0.008,-0.0611 0.0456,-0.1174 0.12609,-0.13182 l 0.44576,-0.0798 c 0.0772,-0.0138 0.13738,-0.0585 0.15599,-0.11573 l 0.11769,-0.36184 c 0.0146,-0.0448 0.0618,-0.0799 0.12228,-0.0907 l 0.48774,-0.0874 c 0.0772,-0.0138 0.13734,-0.0585 0.15597,-0.11574 l 0.0701,-0.21529 c 0.49626,0.14767 1.085,0.0725 1.48701,-0.22583 z m -0.32823,-1.20139 c 0.15482,0.11488 0.15482,0.30111 0,0.41596 -0.15483,0.11488 -0.40582,0.11488 -0.56061,0 -0.15483,-0.11487 -0.15483,-0.30111 0,-0.41596 0.15479,-0.11487 0.40578,-0.11487 0.56061,0 z"
         id="path864" />
      <path
         id="path3375"
         d="m 208.8476,192.93444 c 0.55055,-0.40849 0.53746,-1.07681 -0.0393,-1.47296 -0.52031,-0.3574 -1.33521,-0.36026 -1.85972,-0.006 -0.37433,0.25261 -0.51586,0.61865 -0.42502,0.95722 l -1.88998,1.40234 -0.0207,0.70203 c -0.002,0.0704 0.0761,0.12753 0.1709,0.12493 l 0.70485,-0.0194 c 0.12193,-0.004 0.21477,-0.0824 0.20266,-0.17247 l -0.0123,-0.0913 c -0.008,-0.0611 0.0456,-0.1174 0.12609,-0.13182 l 0.44576,-0.0798 c 0.0772,-0.0138 0.13738,-0.0585 0.15599,-0.11573 l 0.11769,-0.36184 c 0.0146,-0.0448 0.0618,-0.0799 0.12228,-0.0907 l 0.48774,-0.0874 c 0.0772,-0.0138 0.13735,-0.0585 0.15598,-0.11574 l 0.0701,-0.21529 c 0.49627,0.14767 1.08501,0.0725 1.48703,-0.22583 z m -0.32824,-1.20139 c 0.15482,0.11488 0.15482,0.30111 0,0.41596 -0.15483,0.11488 -0.40582,0.11488 -0.56061,0 -0.15483,-0.11487 -0.15483,-0.30111 0,-0.41596 0.15479,-0.11487 0.40578,-0.11487 0.56061,0 z"
         style="opacity:1;fill:#ff00ff;stroke-width:0.0153399"
         inkscape:connector-curvature="0" />
    </g>
  </g>
</svg>
